# xmcd
#
# Track frame offsets:
#	180
#	11395
#	24816
#	37277
#	50328
#	67341
#	82165
#	93590
#	106628
#	117937
#	131286
#	143569
#	156641
#	173577
#	188333
#	199728
#
# Disc length: 2836 seconds
#
# Revision: 0
# Processed by: cddbd v1.5.2PL0 Copyright (c) Steve Scherf et al.
# Submitted via: audiograbber 1.83.01
#
DISCID=cf0b1210
DTITLE=Cline, Patsy - SC2002
DYEAR=2001
DGENRE=Karaoke
TTITLE0=Blue Moon Of Kentucky
TTITLE1=I Fall To Pieces
TTITLE2=Sweet Dreams
TTITLE3=Crazy
TTITLE4=Faded Love
TTITLE5=She's Got You
TTITLE6=Leavin' On Your Mind
TTITLE7=Walkin' After Midnight
TTITLE8=Blue Moon Of Kentucky (Vocals)
TTITLE9=I Fall To Pieces (Vocals)
TTITLE10=Sweet Dreams (Vocals)
TTITLE11=Crazy (Vocals)
TTITLE12=Faded Love (Vocals)
TTITLE13=She's Got You (Vocals)
TTITLE14=Leavin' On Your Mind (Vocals)
TTITLE15=Walkin' After Midnight (Vocals)
EXTD=
EXTT0=
EXTT1=
EXTT2=
EXTT3=
EXTT4=
EXTT5=
EXTT6=
EXTT7=
EXTT8=
EXTT9=
EXTT10=
EXTT11=
EXTT12=
EXTT13=
EXTT14=
EXTT15=
PLAYORDER=
